Coordinates
version=1
nRows=19
nColumns=27
inDegrees=yes

Units are S.I. units (second, meters, Newtons, ...)
If the header above contains a line with 'inDegrees', this indicates whether rotational values are in degrees (yes) or radians (no).

endheader
time	pelvis_rotation	pelvis_tilt	pelvis_list	pelvis_tx	pelvis_ty	pelvis_tz	hip_flexion_r	hip_adduction_r	hip_rotation_r	knee_angle_r	knee_rotation_r	knee_adduction_r	knee_angle_r_beta	ankle_angle_r	subtalar_angle_r	mtp_angle_r	hip_flexion_l	hip_adduction_l	hip_rotation_l	knee_angle_l	knee_rotation_l	knee_adduction_l	knee_angle_l_beta	ankle_angle_l	subtalar_angle_l	mtp_angle_l
      5.03500000	      6.50292297	    -32.51609214	      7.30548064	     -0.05611190	      0.64438859	     -1.11575297	    101.58553116	    -41.46753811	      6.54644754	     78.02797615	      0.00000000	      9.51387584	      1.36184509	      6.56313344	      0.00000000	      0.00000000	     92.01357738	    -29.64999838	     -2.02608495	     69.11690419	      0.00000000	     -9.65667746	      1.20631755	      2.22315643	      0.00000000	      0.00000000
      5.04000000	      6.64580526	    -32.18986871	      7.73249454	     -0.05552679	      0.64564319	     -1.11626861	    101.46217286	    -41.74867102	      6.80716977	     77.86019341	      0.00000000	      9.74174955	      1.35891673	      6.44771049	      0.00000000	      0.00000000	     91.18135544	    -29.53578474	     -2.77710954	     68.85319103	      0.00000000	     -9.81453736	      1.20171488	      2.19381559	      0.00000000	      0.00000000
      5.04500000	      6.61241558	    -32.09124093	      7.77839273	     -0.05522656	      0.64696504	     -1.11659397	    101.15691721	    -41.78740628	      6.66288524	     77.60026024	      0.00000000	      9.74258503	      1.35438004	      6.36473485	      0.00000000	      0.00000000	     90.79418128	    -29.53305651	     -3.02220508	     68.61875669	      0.00000000	     -9.81388382	      1.19762323	      2.13426606	      0.00000000	      0.00000000
      5.05000000	      6.33908239	    -32.00273221	      7.69791154	     -0.05522355	      0.64827566	     -1.11682468	    100.77951645	    -41.50067029	      6.56177164	     77.28231017	      0.00000000	      9.52815396	      1.34883077	      6.23533753	      0.00000000	      0.00000000	     90.41493986	    -29.70771189	     -3.18720866	     68.38117898	      0.00000000	     -9.65312127	      1.19347672	      2.04422699	      0.00000000	      0.00000000
      5.05500000	      6.59144823	    -31.89337416	      7.79563333	     -0.05463727	      0.64955346	     -1.11731871	    100.44963437	    -41.93613882	      6.24401933	     77.06478174	      0.00000000	      9.74523964	      1.34503418	      6.21685922	      0.00000000	      0.00000000	     90.11501713	    -29.44343560	     -3.34789254	     68.18542341	      0.00000000	     -9.81193511	      1.19006014	      2.08774200	      0.00000000	      0.00000000
      5.06000000	      6.48411886	    -31.74896181	      7.80120686	     -0.05427331	      0.65078366	     -1.11769267	    100.08299727	    -41.91864898	      6.08992992	     76.79853605	      0.00000000	      9.74919109	      1.34038731	      6.14289760	      0.00000000	      0.00000000	     89.69195443	    -29.50872129	     -3.59714415	     67.98654930	      0.00000000	     -9.81152511	      1.18658913	      2.09371421	      0.00000000	      0.00000000
      5.06500000	      6.31706886	    -31.61796799	      7.92244386	     -0.05397504	      0.65201151	     -1.11807591	     99.87503981	    -41.78754772	      6.17728945	     76.55302524	      0.00000000	      9.75015652	      1.33610234	      6.05685467	      0.00000000	      0.00000000	     89.16181093	    -29.61477679	     -4.02251111	     67.76280019	      0.00000000	     -9.81207320	      1.18268397	      2.09550104	      0.00000000	      0.00000000
      5.07000000	      6.32586274	    -31.53414138	      7.88965283	     -0.05363012	      0.65320512	     -1.11847947	     99.50613439	    -41.89994589	      5.90135313	     76.29346144	      0.00000000	      9.75184858	      1.33157210	      5.97001768	      0.00000000	      0.00000000	     88.89924645	    -29.54315878	     -4.09261247	     67.57998615	      0.00000000	     -9.81017884	      1.17949327	      2.06739113	      0.00000000	      0.00000000
      5.07500000	      5.89308331	    -31.55014263	      7.52575651	     -0.05369907	      0.65436900	     -1.11869631	     98.99013328	    -41.44851078	      5.52496277	     75.94743712	      0.00000000	      9.53823446	      1.32553284	      5.79304302	      0.00000000	      0.00000000	     88.82100093	    -29.87498346	     -3.95324217	     67.45123642	      0.00000000	     -9.64663829	      1.17724616	      1.94573206	      0.00000000	      0.00000000
      5.08000000	      6.19606579	    -31.32202649	      7.93302049	     -0.05289440	      0.65555686	     -1.11933366	     98.88203696	    -41.93604906	      5.62438788	     75.79289904	      0.00000000	      9.75528467	      1.32283564	      5.80988256	      0.00000000	      0.00000000	     88.17154149	    -29.53948243	     -4.49691577	     67.20918328	      0.00000000	     -9.80885474	      1.17302154	      2.06727955	      0.00000000	      0.00000000
      5.08500000	      5.95026589	    -31.30345132	      7.84649113	     -0.05287479	      0.65670301	     -1.11965930	     98.59647740	    -41.66903173	      5.53755449	     75.49357733	      0.00000000	      9.54770048	      1.31761149	      5.65593482	      0.00000000	      0.00000000	     87.91503356	    -29.66548111	     -4.58549861	     67.02020906	      0.00000000	     -9.64252615	      1.16972331	      2.00938262	      0.00000000	      0.00000000
      5.09000000	      6.11450523	    -31.13027096	      7.94764622	     -0.05212554	      0.65788982	     -1.12022097	     98.23067303	    -42.02855840	      5.27569716	     75.28119529	      0.00000000	      9.75839161	      1.31390472	      5.64104425	      0.00000000	      0.00000000	     87.51232092	    -29.46881201	     -4.79945809	     66.84546866	      0.00000000	     -9.80700397	      1.16667352	      2.07546352	      0.00000000	      0.00000000
      5.09500000	      6.00787001	    -31.02294368	      8.02901232	     -0.05166963	      0.65900885	     -1.12068748	     98.00671871	    -42.00101463	      5.26087233	     75.05269960	      0.00000000	      9.75976865	      1.30991672	      5.54085929	      0.00000000	      0.00000000	     87.08230946	    -29.50560434	     -5.11466038	     66.66331853	      0.00000000	     -9.80625581	      1.16349440	      2.11445116	      0.00000000	      0.00000000
      5.10000000	      5.84118585	    -30.87537415	      8.08149448	     -0.05117773	      0.66018164	     -1.12107259	     97.70374277	    -41.90754904	      5.23460646	     74.81361547	      0.00000000	      9.76096928	      1.30574392	      5.50611504	      0.00000000	      0.00000000	     86.59317249	    -29.60327211	     -5.44756228	     66.46697910	      0.00000000	     -9.80691643	      1.16006763	      2.05710465	      0.00000000	      0.00000000
      5.10500000	      5.75332150	    -30.93556829	      7.75023417	     -0.05112090	      0.66138504	     -1.12142929	     97.15324137	    -41.83998457	      4.65607397	     74.45553342	      0.00000000	      9.56096076	      1.29949420	      5.36523283	      0.00000000	      0.00000000	     86.68736418	    -29.55781412	     -5.04156695	     66.32966830	      0.00000000	     -9.63744869	      1.15767110	      2.06092848	      0.00000000	      0.00000000
      5.11000000	      5.89636924	    -30.76403081	      7.92727614	     -0.05026682	      0.66249690	     -1.12197740	     96.89284051	    -42.17513596	      4.51962781	     74.28632928	      0.00000000	      9.76502080	      1.29654104	      5.35449455	      0.00000000	      0.00000000	     86.22881810	    -29.40335233	     -5.39387924	     66.16016433	      0.00000000	     -9.80449745	      1.15471270	      2.13503999	      0.00000000	      0.00000000
      5.11500000	      5.60931159	    -30.61973918	      8.11331500	     -0.04980952	      0.66361772	     -1.12243932	     96.80336288	    -41.92014668	      4.82006832	     74.06191308	      0.00000000	      9.76565530	      1.29262423	      5.19360497	      0.00000000	      0.00000000	     85.57394299	    -29.58991613	     -5.98392951	     65.95353101	      0.00000000	     -9.80531609	      1.15110627	      2.17374714	      0.00000000	      0.00000000
      5.12000000	      5.78027303	    -30.56577654	      7.80794592	     -0.04925056	      0.66488136	     -1.12281275	     96.05430998	    -42.23454784	      3.98005996	     73.74530358	      0.00000000	      9.76890967	      1.28709836	      5.20437928	      0.00000000	      0.00000000	     85.62449718	    -29.36611159	     -5.53950911	     65.80578727	      0.00000000	     -9.80313001	      1.14852765	      2.13683378	      0.00000000	      0.00000000
      5.12500000	      5.65823376	    -30.45198810	      8.07629720	     -0.04871204	      0.66594393	     -1.12328875	     96.05233390	    -42.15843032	      4.29113361	     73.55969485	      0.00000000	      9.76844267	      1.28385887	      5.12791830	      0.00000000	      0.00000000	     85.04455108	    -29.41195953	     -6.12283512	     65.60369317	      0.00000000	     -9.80298196	      1.14500045	      2.12364266	      0.00000000	      0.00000000
